<?xml version="1.0" standalone="no"?>
<!DOCTYPE svg PUBLIC "-//W3C//DTD SVG 20010904//EN"
 "http://www.w3.org/TR/2001/REC-SVG-20010904/DTD/svg10.dtd">
<svg version="1.0" xmlns="http://www.w3.org/2000/svg"
 width="1000.000000pt" height="1003.000000pt" viewBox="0 0 1000.000000 1003.000000"
 preserveAspectRatio="xMidYMid meet">

<g transform="translate(0.000000,1003.000000) scale(0.100000,-0.100000)"
fill="#000000" stroke="none">
<path d="M4770 10023 c-1115 -61 -2130 -460 -2985 -1174 -230 -192 -539 -516
-740 -774 -885 -1135 -1233 -2636 -944 -4060 253 -1243 974 -2347 2019 -3091
125 -89 158 -110 321 -210 958 -585 2156 -825 3284 -658 2082 306 3768 1910
4179 3974 105 522 125 1081 60 1605 -254 2042 -1744 3731 -3741 4239 -469 119
-1002 174 -1453 149z m680 -442 c185 -20 375 -49 499 -77 408 -93 699 -194
1041 -361 916 -445 1655 -1177 2109 -2088 191 -384 330 -800 405 -1215 368
-2028 -652 -4040 -2509 -4950 -519 -255 -1057 -401 -1660 -451 -183 -15 -666
-6 -840 15 -554 69 -1041 214 -1516 451 -485 242 -873 524 -1244 906 -272 280
-473 540 -667 864 -786 1311 -856 2968 -184 4340 243 496 524 884 928 1282
738 728 1722 1186 2768 1288 214 20 650 18 870 -4z"/>
<path d="M3067 8092 c-3 -4 -7 -19 -10 -33 -6 -24 -12 -27 -78 -33 -299 -28
-510 -178 -626 -446 -45 -105 -63 -182 -63 -271 0 -147 55 -262 167 -348 36
-28 77 -66 91 -84 62 -82 109 -240 113 -379 2 -61 8 -69 30 -42 7 9 41 36 76
61 l63 45 -32 31 c-73 74 -111 237 -89 390 6 44 19 97 29 116 21 41 63 61 90
45 47 -29 91 -168 117 -368 8 -59 16 -110 18 -112 2 -3 16 1 31 7 32 15 32 25
10 221 l-15 141 23 46 c51 99 164 137 239 80 19 -15 45 -47 57 -73 13 -25 26
-46 30 -46 4 0 21 9 37 20 17 11 35 20 40 20 6 0 -16 -17 -47 -36 -59 -36 -75
-64 -37 -64 12 0 60 22 108 49 123 69 152 81 270 116 71 21 106 36 106 46 0
26 -49 20 -160 -20 -146 -52 -157 -55 -110 -31 22 11 88 36 147 55 l107 36
-16 52 c-8 29 -27 76 -41 105 -93 191 -350 325 -622 324 -124 -1 -192 -17
-310 -73 -102 -49 -166 -95 -259 -190 l-69 -71 -18 26 c-27 43 -15 135 32 231
74 151 202 247 393 294 118 29 155 28 170 -5 l12 -27 27 26 c15 15 62 44 104
66 l77 40 -52 11 c-29 6 -76 21 -104 35 -29 13 -54 21 -56 17z m-549 -901 c43
-48 56 -118 29 -155 -13 -18 -15 -17 -46 13 -40 39 -51 69 -51 137 0 54 0 54
23 43 12 -7 32 -24 45 -38z m978 -80 c-3 -5 -16 -11 -28 -14 -22 -6 -22 -5 -4
8 22 17 40 20 32 6z"/>
<path d="M6880 8075 c-25 -13 -69 -29 -99 -36 l-55 -11 77 -40 c43 -22 87 -51
100 -64 28 -30 31 -30 45 1 15 32 57 33 167 5 177 -45 311 -140 378 -267 66
-126 80 -218 42 -269 -14 -18 -17 -16 -69 42 -93 103 -241 202 -362 243 -247
82 -578 9 -751 -166 -69 -71 -132 -184 -136 -248 l-2 -37 124 -43 c99 -35 203
-81 323 -143 3 -2 18 19 33 46 29 53 93 102 135 102 68 -1 163 -79 176 -145 3
-16 -2 -97 -10 -179 -20 -188 -21 -181 9 -194 40 -18 45 -15 45 27 0 56 36
255 59 332 37 118 99 153 147 81 44 -65 57 -223 30 -354 -17 -76 -34 -114 -76
-162 l-30 -34 77 -61 78 -60 8 87 c10 118 50 255 92 319 19 29 64 75 100 103
73 58 128 128 150 190 53 150 36 299 -57 485 -117 235 -307 365 -579 398 l-99
11 -6 33 c-3 18 -9 33 -13 33 -3 -1 -26 -12 -51 -25z m666 -961 c-4 -16 -22
-46 -42 -65 -29 -28 -36 -31 -45 -19 -34 53 -17 121 44 176 l42 39 3 -50 c2
-28 1 -64 -2 -81z"/>
<path d="M4223 7379 c-129 -22 -206 -91 -249 -223 -23 -69 -27 -100 -28 -211
-1 -134 10 -265 23 -265 4 0 21 12 39 28 l32 27 -8 95 c-10 108 1 242 23 311
20 60 78 127 129 150 76 34 181 20 241 -32 45 -40 52 -65 25 -87 l-22 -18 60
-37 c33 -21 72 -51 86 -68 l26 -31 0 84 c0 112 -5 129 -35 118 -20 -8 -25 -5
-35 21 -17 39 -78 101 -120 121 -46 21 -123 28 -187 17z"/>
<path d="M5647 7380 c-76 -19 -133 -63 -167 -130 -18 -35 -23 -39 -44 -30 -24
9 -24 8 -31 -63 -4 -40 -5 -85 -3 -102 l3 -30 25 26 c29 31 128 99 142 99 6 0
-1 9 -15 20 -32 25 -26 50 19 90 69 60 200 67 277 14 92 -64 141 -242 121
-442 l-10 -92 37 -36 36 -36 7 29 c14 65 18 309 7 380 -25 145 -107 256 -211
287 -67 20 -148 26 -193 16z"/>
<path d="M6192 7201 c-21 -13 3 -25 118 -61 103 -32 187 -69 290 -130 32 -19
63 -30 79 -28 l26 3 -30 29 c-38 36 -198 114 -333 160 -108 38 -128 41 -150
27z"/>
<path d="M3785 7154 c-121 -31 -210 -69 -335 -141 l-85 -49 -5 -75 c-11 -150
-93 -244 -435 -499 -361 -269 -505 -427 -648 -715 -126 -251 -161 -377 -162
-580 0 -206 -12 -191 147 -198 82 -4 165 -14 216 -26 46 -12 87 -21 92 -21 5
0 4 15 -1 33 -5 17 -12 73 -16 124 -7 112 9 221 47 321 33 86 99 192 119 192
33 0 111 -100 165 -212 123 -257 175 -509 132 -652 -13 -43 -13 -47 4 -56 27
-14 26 -15 40 38 45 180 9 431 -95 651 -76 160 -179 283 -222 267 -37 -14 118
130 269 250 l156 124 64 0 c52 0 76 -6 133 -34 39 -18 80 -43 92 -55 12 -11
24 -21 26 -21 2 0 26 37 52 83 105 181 277 412 367 491 50 45 235 173 305 212
34 20 86 44 115 54 37 13 45 19 28 20 -28 0 -66 -10 -187 -46 -45 -14 -92 -24
-105 -22 -21 4 -18 10 38 64 33 32 89 76 125 97 84 49 52 47 -49 -3 -159 -80
-253 -162 -400 -350 -143 -182 -208 -256 -247 -280 -38 -24 -45 -24 -70 -6
-18 13 -13 22 85 172 196 299 249 439 266 709 6 98 -1 145 -21 139z"/>
<path d="M6200 7052 c0 -186 39 -351 121 -514 17 -35 78 -133 135 -220 57 -86
104 -161 104 -167 0 -6 -9 -15 -20 -21 -44 -24 -109 35 -273 247 -166 214
-271 309 -432 391 -105 53 -144 56 -52 4 54 -31 177 -137 177 -153 0 -16 -42
-10 -139 21 -52 16 -117 32 -145 35 l-51 5 40 -13 c113 -38 352 -192 458 -295
96 -93 225 -267 337 -457 29 -49 55 -92 57 -94 2 -3 16 7 31 22 47 45 139 81
218 85 l70 4 65 -54 c35 -30 103 -84 151 -122 204 -158 318 -307 374 -491 20
-66 26 -278 11 -369 l-9 -49 29 8 c105 27 184 38 293 44 l124 6 9 40 c5 22 6
103 4 180 -7 193 -47 329 -163 556 -82 161 -183 306 -281 406 -105 107 -139
135 -394 326 -108 80 -223 172 -256 204 -105 101 -153 194 -153 296 l0 52
-123 67 c-94 52 -281 128 -313 128 -2 0 -4 -49 -4 -108z"/>
<path d="M4073 6469 c-18 -12 -33 -22 -33 -23 0 -2 9 -29 21 -62 59 -165 3
-367 -126 -452 -84 -56 -176 -51 -273 13 l-51 33 -21 -34 c-11 -20 -20 -39
-20 -43 0 -9 92 -52 154 -71 62 -20 175 -8 229 23 129 76 216 273 204 462 -5
75 -31 175 -45 175 -4 0 -22 -10 -39 -21z"/>
<path d="M5866 6438 c-40 -130 -26 -280 39 -413 48 -98 85 -139 160 -176 60
-29 70 -31 142 -27 79 6 169 34 210 66 l21 17 -24 37 -24 38 -42 -30 c-43 -31
-123 -60 -167 -60 -45 0 -125 45 -169 95 -63 71 -83 124 -89 230 -5 77 -2 100
19 162 l24 72 -37 20 c-20 12 -39 21 -41 21 -3 0 -13 -24 -22 -52z"/>
<path d="M4860 5776 c-158 -34 -275 -99 -395 -220 -147 -148 -213 -299 -222
-506 -7 -168 24 -295 106 -431 260 -431 829 -505 1186 -153 151 149 227 335
227 554 -1 413 -326 753 -732 766 -64 2 -130 -2 -170 -10z"/>
<path d="M2195 5715 c-98 -27 -227 -78 -273 -109 -46 -31 -131 -130 -132 -153
-1 -34 127 -63 275 -63 57 0 62 2 78 30 l18 30 -53 0 c-70 0 -190 18 -202 30
-5 5 -2 19 8 35 27 41 208 118 301 127 25 3 31 9 41 46 14 48 15 48 -61 27z"/>
<path d="M7742 5723 c26 -54 35 -64 67 -74 88 -28 250 -102 271 -124 45 -48 9
-65 -137 -65 -84 0 -85 0 -79 -22 3 -13 6 -29 6 -37 0 -11 20 -13 104 -9 83 4
113 9 152 29 63 31 70 64 25 127 -37 50 -166 117 -305 157 -94 27 -110 29
-104 18z"/>
<path d="M7169 5502 c-90 -98 -188 -312 -224 -490 -19 -95 -17 -327 5 -395 11
-37 12 -38 30 -22 17 15 17 20 4 57 -18 52 -18 166 1 265 39 204 161 489 241
563 44 40 45 43 28 61 -9 10 -20 19 -24 19 -5 0 -32 -26 -61 -58z"/>
<path d="M2117 4855 c-237 -45 -392 -137 -459 -273 -29 -59 -33 -76 -33 -147
1 -117 41 -231 116 -332 93 -125 257 -181 436 -149 93 16 249 85 353 156 62
42 62 42 42 62 -19 20 -20 20 -59 -5 -60 -38 -171 -92 -243 -118 -54 -19 -85
-23 -185 -24 -107 0 -125 3 -169 24 -143 70 -240 261 -215 420 40 258 356 397
727 321 284 -58 497 -186 720 -433 35 -39 47 -46 67 -41 14 3 28 11 31 16 8
12 -168 186 -254 252 -106 80 -391 224 -502 252 -122 31 -268 39 -373 19z"/>
<path d="M7600 4855 c-41 -7 -95 -18 -120 -25 -72 -19 -377 -179 -464 -243
-87 -64 -269 -243 -261 -257 3 -4 16 -11 29 -14 21 -5 39 8 128 100 133 137
204 190 363 269 169 85 282 115 460 122 110 5 144 2 210 -15 119 -30 192 -68
261 -137 75 -75 99 -133 99 -250 0 -72 -4 -88 -36 -155 -46 -96 -102 -158
-175 -195 -55 -28 -66 -30 -174 -30 -95 0 -127 4 -185 24 -72 25 -198 85 -249
120 -23 15 -33 17 -47 8 -11 -7 -19 -16 -19 -22 1 -22 178 -126 289 -170 255
-99 504 -14 611 209 139 292 31 521 -295 625 -154 50 -282 61 -425 36z"/>
<path d="M2155 4779 c17 -57 96 -210 144 -276 61 -87 332 -375 430 -457 l70
-59 -28 -41 c-50 -73 -71 -123 -71 -172 0 -94 63 -145 190 -152 77 -4 220 13
220 27 0 5 -9 16 -21 27 -18 16 -37 19 -126 19 l-105 0 -29 33 c-23 26 -29 41
-29 80 0 102 84 211 244 316 164 109 298 165 412 173 134 9 185 -21 170 -100
-4 -19 -17 -46 -31 -61 -47 -51 -136 -24 -247 73 -42 38 -49 40 -72 30 -25
-12 -25 -13 -9 -32 10 -11 56 -47 103 -80 72 -52 93 -61 137 -65 30 -3 66 1
83 8 97 40 130 194 52 246 -42 29 -219 27 -332 -4 -111 -30 -213 -74 -275
-117 l-50 -35 -84 88 c-127 133 -221 283 -290 465 -9 22 -23 28 -122 52 -71
17 -156 29 -227 32 l-114 6 7 -24z"/>
<path d="M7640 4790 c-30 -5 -96 -18 -147 -30 l-91 -22 -18 -47 c-56 -150
-162 -318 -275 -436 -73 -75 -80 -87 -68 -102 8 -9 -13 2 -46 24 -76 52 -143
85 -225 111 -204 67 -387 69 -436 4 -22 -28 -17 -112 9 -155 33 -54 72 -77
130 -77 62 0 91 14 201 96 l88 67 -32 13 c-31 14 -33 13 -88 -36 -106 -94
-189 -115 -236 -60 -14 17 -28 47 -32 66 -6 30 -3 40 20 62 22 22 37 27 94 30
102 6 167 -12 320 -88 150 -76 277 -168 336 -246 42 -55 70 -139 60 -181 -20
-83 -121 -114 -259 -78 -56 15 -60 15 -72 -1 -7 -10 -13 -21 -13 -24 0 -10
136 -40 211 -47 126 -11 218 32 233 110 8 45 -15 117 -58 183 -20 30 -36 57
-36 61 1 5 26 28 56 53 153 124 424 426 501 557 26 45 83 178 83 194 0 11
-132 10 -210 -1z m-489 -737 c13 -16 12 -17 -3 -4 -10 7 -18 15 -18 17 0 8 8
3 21 -13z"/>
<path d="M2878 4464 c-42 -41 -65 -71 -61 -80 3 -7 10 -14 16 -14 17 0 139
130 134 143 -7 23 -25 14 -89 -49z"/>
<path d="M7031 4517 c-8 -11 4 -28 58 -80 71 -69 88 -78 97 -52 4 9 -19 38
-62 80 -38 36 -72 65 -75 65 -4 0 -12 -6 -18 -13z"/>
<path d="M2980 4063 c-30 -26 -70 -63 -88 -83 l-32 -35 23 -20 c13 -11 87 -66
164 -122 164 -120 281 -225 299 -270 19 -44 17 -108 -3 -151 -10 -21 -40 -59
-68 -86 -27 -28 -41 -46 -30 -42 42 16 247 66 271 66 21 0 31 -13 69 -92 99
-206 96 -323 -8 -368 -141 -61 -471 -4 -531 93 -35 56 96 113 316 139 l103 12
-55 17 c-72 23 -230 25 -314 3 -33 -8 -146 -57 -251 -109 -232 -114 -328 -139
-693 -181 l-42 -5 27 -23 c43 -34 161 -116 168 -116 4 0 27 14 51 31 68 47
202 107 280 125 160 38 330 -7 505 -133 l46 -33 -5 50 -5 50 65 -29 c277 -126
466 -113 536 37 24 51 27 69 26 162 -1 115 -24 222 -69 310 -14 27 -25 52 -25
56 0 4 16 4 35 1 45 -7 52 14 30 91 -43 149 -88 195 -550 558 -60 48 -125 100
-143 115 -18 16 -36 29 -40 29 -4 0 -32 -21 -62 -47z"/>
<path d="M6909 4072 c-45 -39 -115 -94 -279 -223 -314 -246 -395 -340 -407
-480 l-6 -58 37 6 c20 3 36 3 36 1 0 -3 -11 -30 -25 -60 -42 -92 -65 -201 -65
-307 1 -143 36 -221 120 -262 89 -45 257 -22 428 56 41 19 76 35 78 35 2 0 1
-20 -3 -45 -3 -25 -3 -45 1 -45 3 0 27 15 53 34 115 81 265 136 375 136 110 0
271 -56 389 -136 29 -19 58 -33 64 -30 7 2 52 33 100 67 l89 64 -35 6 c-19 4
-77 12 -129 18 -121 13 -288 47 -365 73 -33 11 -135 57 -226 102 -91 46 -196
90 -232 99 -87 22 -236 22 -308 0 l-54 -16 124 -18 c195 -29 291 -70 291 -125
0 -69 -284 -150 -441 -126 -131 20 -169 56 -169 160 0 100 90 322 131 322 28
0 148 -27 219 -49 36 -12 67 -21 69 -21 2 0 -19 25 -48 55 -88 93 -103 166
-53 246 37 58 90 104 299 260 126 95 171 133 166 145 -6 16 -161 154 -173 154
-4 0 -27 -17 -51 -38z"/>
<path d="M3645 3711 l-40 -6 25 -18 c21 -15 38 -16 110 -11 53 4 107 2 143 -5
62 -13 117 -51 117 -81 0 -24 -51 -62 -113 -85 -68 -26 -74 -40 -21 -51 23 -4
42 3 93 37 75 51 94 77 85 113 -10 42 -75 92 -133 105 -54 11 -197 13 -266 2z"/>
<path d="M6082 3708 c-59 -13 -122 -73 -122 -117 0 -36 23 -62 101 -112 38
-24 55 -29 79 -24 16 4 32 10 35 14 4 8 -1 11 -94 52 -97 43 -102 91 -13 132
40 19 65 22 168 22 93 0 125 3 139 15 17 14 15 15 -21 22 -56 10 -221 8 -272
-4z"/>
</g>
</svg>
