<?xml version="1.0" standalone="no"?>
<!DOCTYPE svg PUBLIC "-//W3C//DTD SVG 20010904//EN"
 "http://www.w3.org/TR/2001/REC-SVG-20010904/DTD/svg10.dtd">
<svg version="1.0" xmlns="http://www.w3.org/2000/svg"
 width="400.000000pt" height="100.000000pt" viewBox="0 0 400.000000 100.000000"
 preserveAspectRatio="xMidYMid meet">

<g transform="translate(0.000000,100.000000) scale(0.100000,-0.100000)"
fill="currentColor" stroke="none">
<path d="M1990 984 c-8 -1 -45 -6 -82 -9 -63 -6 -68 -8 -68 -30 0 -19 7 -24
40 -30 l40 -7 0 -73 0 -73 -72 -4 c-92 -4 -159 -35 -199 -91 -89 -123 -71
-325 34 -395 33 -22 52 -27 103 -27 54 0 68 4 108 32 l46 33 0 -30 c0 -36 23
-44 96 -35 49 6 54 9 54 31 0 17 -5 24 -20 24 -20 0 -20 7 -20 335 0 320 -1
335 -19 345 -11 5 -21 9 -23 9 -2 -1 -10 -3 -18 -5z m-77 -291 c4 -2 7 -80 7
-173 0 -169 0 -170 -25 -186 -60 -40 -131 -10 -157 65 -15 44 -14 167 1 213
13 39 55 83 86 91 20 5 73 -1 88 -10z"/>
<path d="M3161 963 c-55 -46 -27 -128 43 -126 50 1 76 27 76 74 0 28 -6 42
-22 53 -30 21 -71 20 -97 -1z"/>
<path d="M60 892 c0 -21 7 -30 28 -38 21 -8 48 -47 120 -171 l92 -161 0 -106
0 -105 -42 -3 c-39 -3 -43 -6 -46 -30 l-3 -28 166 0 166 0 -3 28 c-3 25 -7 27
-50 30 l-48 3 0 103 0 102 84 158 c96 178 99 184 129 188 16 2 22 10 22 28 0
25 0 25 -107 28 l-108 3 0 -30 c0 -25 5 -30 34 -35 l34 -7 -63 -135 c-35 -75
-65 -137 -67 -138 -2 -2 -33 60 -70 136 l-68 139 30 6 c25 4 30 10 30 34 l0
29 -130 0 -130 0 0 -28z"/>
<path d="M914 906 c-10 -26 2 -43 35 -49 l31 -6 0 -270 0 -270 -32 -3 c-27 -2
-34 -8 -36 -29 l-3 -27 153 -4 c84 -2 175 0 201 4 107 16 197 90 239 197 31
79 32 245 2 311 -26 57 -76 107 -134 134 -40 19 -67 21 -248 24 -176 3 -203 1
-208 -12z m328 -46 c53 -15 92 -52 119 -112 20 -45 23 -69 23 -163 0 -93 -3
-118 -22 -160 -13 -27 -30 -58 -40 -69 -26 -29 -92 -56 -139 -56 -78 0 -73
-20 -73 285 0 209 3 275 13 278 21 9 81 7 119 -3z"/>
<path d="M2235 753 c-68 -8 -75 -12 -75 -42 0 -25 5 -31 30 -36 l30 -7 0 -178
0 -178 -30 -7 c-23 -5 -30 -12 -30 -31 l0 -24 145 0 145 0 0 25 c0 22 -5 25
-50 31 l-50 7 0 149 0 149 37 16 c24 10 56 14 90 11 l53 -5 0 64 0 63 -36 0
c-48 0 -97 -24 -134 -66 -16 -19 -31 -34 -34 -34 -3 0 -2 16 1 35 3 21 1 41
-7 50 -12 15 -24 16 -85 8z"/>
<path d="M2695 740 c-85 -29 -99 -41 -84 -74 9 -18 18 -25 28 -21 54 21 131
35 164 29 45 -7 67 -35 67 -85 l0 -36 -75 -6 c-87 -6 -152 -33 -191 -80 -23
-27 -26 -38 -22 -89 3 -47 10 -64 33 -88 55 -57 147 -64 220 -14 43 29 45 29
45 5 0 -34 25 -44 95 -36 60 6 65 8 65 31 0 19 -5 24 -24 24 l-24 0 -4 183
c-3 198 -8 217 -64 253 -40 27 -156 28 -229 4z m175 -315 c0 -68 -2 -76 -25
-91 -38 -25 -94 -23 -116 5 -23 29 -24 79 -3 110 20 28 68 50 112 51 l32 0 0
-75z"/>
<path d="M3180 754 c-14 -3 -40 -7 -57 -10 -28 -4 -33 -9 -33 -33 0 -23 6 -30
33 -37 l32 -10 0 -174 0 -175 -30 -5 c-24 -4 -31 -11 -33 -33 l-3 -27 126 0
126 0 -3 28 c-2 21 -9 28 -30 30 l-28 3 -2 222 -3 222 -35 1 c-19 1 -46 0 -60
-2z"/>
<path d="M3548 751 c-49 -16 -98 -52 -115 -84 -36 -69 -12 -170 49 -207 29
-18 30 -18 9 -29 -25 -14 -51 -61 -51 -94 0 -14 8 -35 18 -47 17 -21 17 -23
-20 -60 -33 -32 -38 -44 -38 -82 0 -52 24 -89 73 -116 25 -13 57 -17 142 -17
95 0 117 3 162 24 101 45 151 131 121 209 -23 61 -62 76 -210 82 -146 6 -170
17 -152 67 9 27 13 28 94 34 98 7 137 24 177 76 24 31 28 46 28 100 l0 63 42
0 43 0 0 45 0 45 -37 0 c-21 0 -51 -9 -67 -19 -27 -18 -31 -18 -54 -3 -28 18
-171 27 -214 13z m136 -64 c29 -29 40 -85 26 -136 -19 -71 -84 -93 -137 -47
-25 22 -28 30 -28 91 0 61 3 69 28 91 36 31 81 31 111 1z m77 -466 c23 -28 24
-52 4 -90 -19 -37 -71 -61 -135 -61 -44 0 -56 4 -81 29 -32 32 -37 66 -18 121
l12 32 100 -4 c89 -3 101 -6 118 -27z"/>
</g>
</svg>
